<svg xmlns="http://www.w3.org/2000/svg" width="820" height="240" viewBox="0 0 820 240" role="img" aria-label="pixel scene">
  <defs>
    <linearGradient id="sky" x1="0" y1="0" x2="0" y2="1">
      <stop offset="0" stop-color="#14103a"/>
      <stop offset="1" stop-color="#241a52"/>
    </linearGradient>
    <style>
      @keyframes bob     { 0%,100% { transform: translateY(0); } 50% { transform: translateY(-7px); } }
      @keyframes eyesO   { 0%,92% { opacity: 1; } 93%,100% { opacity: 0; } }
      @keyframes eyesC   { 0%,92% { opacity: 0; } 93%,100% { opacity: 1; } }
      @keyframes twinkle { 0%,100% { opacity: .2; } 50% { opacity: 1; } }
      @keyframes drift   { 0%,100% { transform: translateX(0); } 50% { transform: translateX(14px); } }
      .bob    { animation: bob 2.2s ease-in-out infinite; }
      .eyesO  { animation: eyesO 4.2s steps(1) infinite; }
      .eyesC  { animation: eyesC 4.2s steps(1) infinite; }
      .star   { animation: twinkle 2.6s ease-in-out infinite; }
      .cloud  { animation: drift 9s ease-in-out infinite; }
      .mono   { font-family: 'Courier New', monospace; font-weight: 700; }
    </style>
  </defs>

  <!-- sky -->
  <rect width="820" height="240" fill="url(#sky)"/>

  <!-- stars -->
  <g fill="#c9bcff">
    <rect class="star" x="70"  y="34"  width="3" height="3" style="animation-delay:.0s"/>
    <rect class="star" x="150" y="60"  width="3" height="3" style="animation-delay:.7s"/>
    <rect class="star" x="240" y="28"  width="3" height="3" style="animation-delay:1.3s"/>
    <rect class="star" x="330" y="72"  width="3" height="3" style="animation-delay:.4s"/>
    <rect class="star" x="500" y="30"  width="3" height="3" style="animation-delay:1.1s"/>
    <rect class="star" x="590" y="66"  width="3" height="3" style="animation-delay:1.9s"/>
    <rect class="star" x="670" y="40"  width="3" height="3" style="animation-delay:.9s"/>
    <rect class="star" x="750" y="58"  width="3" height="3" style="animation-delay:1.5s"/>
    <rect class="star" x="120" y="100" width="3" height="3" style="animation-delay:2.1s"/>
    <rect class="star" x="700" y="96"  width="3" height="3" style="animation-delay:.3s"/>
  </g>

  <!-- pixel clouds -->
  <g class="cloud" fill="#3a2f66">
    <g transform="translate(90,46)">
      <rect x="6" y="6" width="42" height="8"/><rect x="0" y="14" width="54" height="8"/><rect x="14" y="0" width="24" height="6"/>
    </g>
    <g transform="translate(560,58)">
      <rect x="6" y="6" width="42" height="8"/><rect x="0" y="14" width="54" height="8"/><rect x="14" y="0" width="24" height="6"/>
    </g>
    <g transform="translate(690,30)">
      <rect x="4" y="5" width="30" height="6"/><rect x="0" y="11" width="40" height="6"/>
    </g>
  </g>

  <!-- ground band -->
  <rect x="0" y="170" width="820" height="70" fill="#0d0b1f"/>
  <rect x="0" y="170" width="820" height="30" fill="#33285f"/>
  <rect x="0" y="170" width="820" height="4"  fill="#4a3a88"/>
  <g fill="#241a52">
    <rect x="20"  y="188" width="12" height="8"/>
    <rect x="120" y="188" width="12" height="8"/>
    <rect x="250" y="188" width="12" height="8"/>
    <rect x="360" y="188" width="12" height="8"/>
    <rect x="470" y="188" width="12" height="8"/>
    <rect x="600" y="188" width="12" height="8"/>
    <rect x="720" y="188" width="12" height="8"/>
    <rect x="790" y="188" width="12" height="8"/>
  </g>

  <!-- name tag -->
  <text class="mono" x="22" y="34" font-size="14" fill="#8b7fd6">&gt; sandra</text>
  <text class="mono" x="22" y="52" font-size="11" fill="#5a4f8a">a lifelong learner</text>

  <!-- creature -->
  <g transform="translate(366,86) scale(1.4)">
   <g class="bob">
    <!-- ears -->
    <rect x="9"  y="-12" width="6"  height="6" fill="#5f3fc0"/>
    <rect x="6"  y="-6"  width="12" height="6" fill="#5f3fc0"/>
    <rect x="45" y="-12" width="6"  height="6" fill="#5f3fc0"/>
    <rect x="42" y="-6"  width="12" height="6" fill="#5f3fc0"/>
    <!-- body silhouette -->
    <g fill="#8a63e8">
      <rect x="15" y="0"  width="30" height="6"/>
      <rect x="9"  y="6"  width="42" height="6"/>
      <rect x="3"  y="12" width="54" height="6"/>
      <rect x="0"  y="18" width="60" height="6"/>
      <rect x="0"  y="24" width="60" height="6"/>
      <rect x="0"  y="30" width="60" height="6"/>
      <rect x="3"  y="36" width="54" height="6"/>
      <rect x="9"  y="42" width="42" height="6"/>
    </g>
    <!-- shading -->
    <g fill="#7551d6">
      <rect x="9"  y="42" width="42" height="6"/>
      <rect x="3"  y="36" width="6"  height="6"/>
      <rect x="51" y="36" width="6"  height="6"/>
    </g>
    <!-- highlight -->
    <rect x="9" y="6" width="12" height="6" fill="#a888f2"/>
    <!-- feet -->
    <rect x="12" y="48" width="12" height="6" fill="#5f3fc0"/>
    <rect x="36" y="48" width="12" height="6" fill="#5f3fc0"/>
    <!-- eyes open -->
    <g class="eyesO" fill="#14103a">
      <rect x="15" y="18" width="6" height="12"/>
      <rect x="39" y="18" width="6" height="12"/>
      <rect x="15" y="18" width="3" height="3" fill="#c9bcff"/>
      <rect x="39" y="18" width="3" height="3" fill="#c9bcff"/>
    </g>
    <!-- eyes closed (blink) -->
    <g class="eyesC" fill="#14103a">
      <rect x="15" y="24" width="6" height="3"/>
      <rect x="39" y="24" width="6" height="3"/>
    </g>
    <!-- mouth -->
    <rect x="24" y="36" width="12" height="5" fill="#ffffff"/>
   </g>
  </g>

  <!-- toolbox bar -->
  <g transform="translate(22,214)">
    <!-- pixel heart -->
    <g fill="#ff5c8a">
      <rect x="0"  y="2" width="4" height="4"/>
      <rect x="10" y="2" width="4" height="4"/>
      <rect x="0"  y="6" width="14" height="4"/>
      <rect x="2"  y="10" width="10" height="4"/>
      <rect x="4"  y="14" width="6"  height="4"/>
    </g>
    <text class="mono" x="26" y="16" font-size="13" fill="#c9c3e6">toolbox: python . tensorflow . scikit-learn . pandas</text>
  </g>
</svg>
