<svg xmlns="http://www.w3.org/2000/svg" width="820" height="200" viewBox="0 0 820 200" role="img" aria-label="pixel scene">
  <defs>
    <linearGradient id="sky" x1="0" y1="0" x2="0" y2="1">
      <stop offset="0" stop-color="#14103a"/>
      <stop offset="1" stop-color="#241a52"/>
    </linearGradient>
    <style>
      /* scene gates (18s loop) */
      @keyframes sceneA { 0%{opacity:0} 2%{opacity:1} 30%{opacity:1} 34%{opacity:0} 100%{opacity:0} }
      @keyframes sceneB { 0%{opacity:0} 33%{opacity:0} 36%{opacity:1} 63%{opacity:1} 67%{opacity:0} 100%{opacity:0} }
      @keyframes sceneC { 0%{opacity:0} 66%{opacity:0} 69%{opacity:1} 98%{opacity:1} 100%{opacity:0} }
      .sceneA { animation: sceneA 18s linear infinite; }
      .sceneB { animation: sceneB 18s linear infinite; }
      .sceneC { animation: sceneC 18s linear infinite; }

      /* creature ambient */
      @keyframes idle    { 0%,100%{transform:translateY(0)} 50%{transform:translateY(-4px)} }
      @keyframes wiggle  { 0%,100%{transform:rotate(-8deg)} 50%{transform:rotate(8deg)} }
      @keyframes eyesO   { 0%,92%{opacity:1} 93%,100%{opacity:0} }
      @keyframes eyesC   { 0%,92%{opacity:0} 93%,100%{opacity:1} }
      .idle   { animation: idle 1s ease-in-out infinite; }
      .ears   { animation: wiggle 1.3s ease-in-out infinite; transform-box: fill-box; transform-origin: 50% 100%; }
      .eyesO  { animation: eyesO 4.2s steps(1) infinite; }
      .eyesC  { animation: eyesC 4.2s steps(1) infinite; }

      /* background */
      @keyframes twinkle { 0%,100%{opacity:.2} 50%{opacity:1} }
      @keyframes drift   { 0%,100%{transform:translateX(0)} 50%{transform:translateX(14px)} }
      .star   { animation: twinkle 2.6s ease-in-out infinite; }
      .cloud  { animation: drift 9s ease-in-out infinite; }
      .mono   { font-family: 'Courier New', monospace; font-weight: 700; }

      /* scene A - whiteboard */
      @keyframes grow  { 0%{transform:scaleY(0)} 6%{transform:scaleY(0)} 17%{transform:scaleY(1)}
                         30%{transform:scaleY(1)} 34%{transform:scaleY(0)} 100%{transform:scaleY(0)} }
      @keyframes idea  { 0%,20%{opacity:0;transform:scale(.4)} 24%{opacity:1;transform:scale(1)}
                         31%{opacity:1;transform:scale(1)} 34%{opacity:0} 100%{opacity:0} }
      .grow { animation: grow 18s ease-out infinite; transform-box: fill-box; transform-origin: 50% 100%; }
      .idea { animation: idea 18s ease-out infinite; transform-box: fill-box; transform-origin: 50% 100%; }

      /* scene B - rocket */
      @keyframes fly   { 0%{transform:translateY(0)} 38%{transform:translateY(0)} 41%{transform:translateY(-6px)}
                         46%{transform:translateY(-50px)} 50%{transform:translateY(-88px)} 52%{transform:translateY(-90px)}
                         67%{transform:translateY(-90px)} 68%{transform:translateY(0)} 100%{transform:translateY(0)} }
      @keyframes body  { 0%{opacity:1} 51%{opacity:1} 52%{opacity:0} 67%{opacity:0} 68%{opacity:1} 100%{opacity:1} }
      @keyframes flame { 0%,40%{opacity:0} 41%{opacity:1} 51%{opacity:1} 52%{opacity:0} 100%{opacity:0} }
      @keyframes flick { 0%,100%{transform:scaleY(1)} 50%{transform:scaleY(.6)} }
      @keyframes boom  { 0%,50%{opacity:0;transform:scale(.2)} 52%{opacity:1;transform:scale(.6)}
                         56%{opacity:1;transform:scale(1.1)} 61%{opacity:0;transform:scale(1.4)} 100%{opacity:0} }
      @keyframes smoke { 0%,52%{opacity:0;transform:translateY(0) scale(.4)} 55%{opacity:.85}
                         66%{opacity:0;transform:translateY(-34px) scale(1.5)} 100%{opacity:0} }
      @keyframes bang  { 0%,49%{opacity:0;transform:translateY(4px)} 51%{opacity:1;transform:translateY(0)}
                         60%{opacity:1} 64%{opacity:0} 100%{opacity:0} }
      @keyframes capB1 { 0%,33%{opacity:0} 35%{opacity:1} 49%{opacity:1} 51%{opacity:0} 100%{opacity:0} }
      @keyframes capB2 { 0%,50%{opacity:0} 52%{opacity:1} 65%{opacity:1} 67%{opacity:0} 100%{opacity:0} }
      .fly   { animation: fly 18s ease-in infinite; }
      .rbody { animation: body 18s steps(1) infinite; }
      .flame { animation: flame 18s steps(1) infinite; }
      .flick { animation: flick .12s ease-in-out infinite; transform-box: fill-box; transform-origin: 50% 0%; }
      .boom  { animation: boom 18s ease-out infinite; transform-box: fill-box; transform-origin: 50% 50%; }
      .smoke { animation: smoke 18s ease-out infinite; transform-box: fill-box; transform-origin: 50% 100%; }
      .bang  { animation: bang 18s ease-out infinite; }
      .capB1 { animation: capB1 18s linear infinite; }
      .capB2 { animation: capB2 18s linear infinite; }

      /* scene C - contribution grid */
      @keyframes fillcol { 0%{opacity:0} 66%{opacity:0} 70%{opacity:1} 100%{opacity:1} }
      .col { animation: fillcol 18s ease-out infinite; }
    </style>
  </defs>

  <!-- sky -->
  <rect width="820" height="200" fill="url(#sky)"/>

  <!-- stars -->
  <g fill="#c9bcff">
    <rect class="star" x="70"  y="30"  width="3" height="3" style="animation-delay:.0s"/>
    <rect class="star" x="240" y="26"  width="3" height="3" style="animation-delay:1.3s"/>
    <rect class="star" x="500" y="28"  width="3" height="3" style="animation-delay:1.1s"/>
    <rect class="star" x="670" y="36"  width="3" height="3" style="animation-delay:.9s"/>
    <rect class="star" x="770" y="54"  width="3" height="3" style="animation-delay:1.5s"/>
    <rect class="star" x="150" y="52"  width="3" height="3" style="animation-delay:.5s"/>
    <rect class="star" x="410" y="22"  width="3" height="3" style="animation-delay:2.0s"/>
  </g>

  <!-- pixel clouds -->
  <g class="cloud" fill="#3a2f66">
    <g transform="translate(560,50)">
      <rect x="6" y="6" width="42" height="8"/><rect x="0" y="14" width="54" height="8"/><rect x="14" y="0" width="24" height="6"/>
    </g>
    <g transform="translate(700,28)">
      <rect x="4" y="5" width="30" height="6"/><rect x="0" y="11" width="40" height="6"/>
    </g>
  </g>

  <!-- ground band -->
  <rect x="0" y="170" width="820" height="30" fill="#33285f"/>
  <rect x="0" y="170" width="820" height="4"  fill="#4a3a88"/>
  <g fill="#241a52">
    <rect x="30"  y="186" width="12" height="8"/><rect x="150" y="186" width="12" height="8"/>
    <rect x="290" y="186" width="12" height="8"/><rect x="430" y="186" width="12" height="8"/>
    <rect x="560" y="186" width="12" height="8"/><rect x="690" y="186" width="12" height="8"/>
    <rect x="790" y="186" width="12" height="8"/>
  </g>

  <!-- constant name tag -->
  <text class="mono" x="22" y="32" font-size="14" fill="#8b7fd6">&gt; sandra</text>
  <text class="mono" x="22" y="50" font-size="11" fill="#5a4f8a">makes things for fun</text>

  <!-- ============ SCENE A : whiteboard ============ -->
  <g class="sceneA">
    <!-- board legs -->
    <rect x="120" y="150" width="8" height="20" fill="#4a3a88"/>
    <rect x="268" y="150" width="8" height="20" fill="#4a3a88"/>
    <!-- board -->
    <rect x="96" y="56" width="204" height="98" fill="#d7d3ee"/>
    <rect x="96" y="56" width="204" height="98" fill="none" stroke="#a9a3d6" stroke-width="4"/>
    <!-- chart bars -->
    <rect class="grow" x="126" y="92"  width="26" height="52" fill="#8a63e8" style="animation-delay:0s"/>
    <rect class="grow" x="162" y="66"  width="26" height="78" fill="#6f9ff2" style="animation-delay:.18s"/>
    <rect class="grow" x="198" y="104" width="26" height="40" fill="#4ec9a5" style="animation-delay:.36s"/>
    <rect class="grow" x="234" y="80"  width="26" height="64" fill="#f2a65e" style="animation-delay:.54s"/>
    <!-- lightbulb -->
    <g transform="translate(476,44)"><g class="idea">
      <rect x="4" y="0"  width="16" height="4"  fill="#ffd95c"/>
      <rect x="0" y="4"  width="24" height="14" fill="#ffd95c"/>
      <rect x="4" y="18" width="16" height="6"  fill="#ffd95c"/>
      <rect x="8" y="24" width="8"  height="4"  fill="#a9a3d6"/>
      <rect x="-8" y="9" width="6" height="4" fill="#ffd95c"/><rect x="26" y="9" width="6" height="4" fill="#ffd95c"/>
    </g></g>
    <!-- creature -->
    <g transform="translate(452,104) scale(1.2)"><g class="idle">
      <g class="ears"><rect x="9" y="-12" width="6" height="6" fill="#5f3fc0"/><rect x="6" y="-6" width="12" height="6" fill="#5f3fc0"/><rect x="45" y="-12" width="6" height="6" fill="#5f3fc0"/><rect x="42" y="-6" width="12" height="6" fill="#5f3fc0"/></g>
      <g fill="#8a63e8"><rect x="15" y="0" width="30" height="6"/><rect x="9" y="6" width="42" height="6"/><rect x="3" y="12" width="54" height="6"/><rect x="0" y="18" width="60" height="6"/><rect x="0" y="24" width="60" height="6"/><rect x="0" y="30" width="60" height="6"/><rect x="3" y="36" width="54" height="6"/><rect x="9" y="42" width="42" height="6"/></g>
      <rect x="9" y="6" width="12" height="6" fill="#a888f2"/>
      <rect x="12" y="48" width="12" height="6" fill="#5f3fc0"/><rect x="36" y="48" width="12" height="6" fill="#5f3fc0"/>
      <g class="eyesO" fill="#14103a"><rect x="15" y="18" width="6" height="12"/><rect x="39" y="18" width="6" height="12"/><rect x="15" y="18" width="3" height="3" fill="#c9bcff"/><rect x="39" y="18" width="3" height="3" fill="#c9bcff"/></g>
      <g class="eyesC" fill="#14103a"><rect x="15" y="24" width="6" height="3"/><rect x="39" y="24" width="6" height="3"/></g>
      <rect x="24" y="36" width="12" height="5" fill="#ffffff"/>
    </g></g>
    <text class="mono" x="410" y="162" text-anchor="middle" font-size="13" fill="#c9c3e6">sketches something</text>
  </g>

  <!-- ============ SCENE B : rocket ============ -->
  <g class="sceneB">
    <!-- launch pad -->
    <rect x="414" y="160" width="52" height="10" fill="#4a3a88"/>
    <!-- smoke -->
    <g class="smoke" fill="#6b5fa0">
      <rect x="426" y="30" width="10" height="10"/><rect x="440" y="24" width="12" height="12"/><rect x="452" y="34" width="8" height="8"/>
    </g>
    <!-- explosion burst -->
    <g transform="translate(440,44)"><g class="boom">
      <rect x="-8" y="-8" width="16" height="16" fill="#ffd95c"/>
      <rect x="-20" y="-3" width="12" height="7" fill="#f26d6d"/><rect x="8" y="-3" width="12" height="7" fill="#f26d6d"/>
      <rect x="-3" y="-20" width="7" height="12" fill="#f2a65e"/><rect x="-3" y="8" width="7" height="12" fill="#f2a65e"/>
      <rect x="-15" y="-15" width="8" height="8" fill="#f26d6d"/><rect x="9" y="9" width="8" height="8" fill="#f26d6d"/>
      <rect x="11" y="-14" width="6" height="6" fill="#f2a65e"/><rect x="-17" y="9" width="6" height="6" fill="#f2a65e"/>
    </g></g>
    <!-- rocket (flies up) -->
    <g transform="translate(426,100)"><g class="fly">
      <!-- flame -->
      <g class="flame"><g class="flick">
        <path d="M8,54 L14,76 L20,54 Z" fill="#f2a65e"/>
        <path d="M11,54 L14,68 L17,54 Z" fill="#ffd95c"/>
      </g></g>
      <!-- body -->
      <g class="rbody">
        <path d="M14,2 L4,20 L24,20 Z" fill="#f26d6d"/>
        <rect x="4" y="20" width="20" height="30" fill="#e8e6f5"/>
        <rect x="10" y="26" width="8" height="8" fill="#6f9ff2"/>
        <rect x="4" y="46" width="20" height="6" fill="#c9c3e6"/>
        <path d="M4,40 L4,56 L-4,56 Z" fill="#f26d6d"/>
        <path d="M24,40 L24,56 L32,56 Z" fill="#f26d6d"/>
      </g>
    </g></g>
    <!-- creature (watching) -->
    <g transform="translate(120,104) scale(1.2)"><g class="idle">
      <g class="ears"><rect x="9" y="-12" width="6" height="6" fill="#5f3fc0"/><rect x="6" y="-6" width="12" height="6" fill="#5f3fc0"/><rect x="45" y="-12" width="6" height="6" fill="#5f3fc0"/><rect x="42" y="-6" width="12" height="6" fill="#5f3fc0"/></g>
      <g fill="#8a63e8"><rect x="15" y="0" width="30" height="6"/><rect x="9" y="6" width="42" height="6"/><rect x="3" y="12" width="54" height="6"/><rect x="0" y="18" width="60" height="6"/><rect x="0" y="24" width="60" height="6"/><rect x="0" y="30" width="60" height="6"/><rect x="3" y="36" width="54" height="6"/><rect x="9" y="42" width="42" height="6"/></g>
      <rect x="9" y="6" width="12" height="6" fill="#a888f2"/>
      <rect x="12" y="48" width="12" height="6" fill="#5f3fc0"/><rect x="36" y="48" width="12" height="6" fill="#5f3fc0"/>
      <g class="eyesO" fill="#14103a"><rect x="15" y="18" width="6" height="12"/><rect x="39" y="18" width="6" height="12"/><rect x="15" y="18" width="3" height="3" fill="#c9bcff"/><rect x="39" y="18" width="3" height="3" fill="#c9bcff"/></g>
      <g class="eyesC" fill="#14103a"><rect x="15" y="24" width="6" height="3"/><rect x="39" y="24" width="6" height="3"/></g>
      <rect x="24" y="36" width="12" height="5" fill="#ffffff"/>
    </g></g>
    <!-- surprise mark -->
    <g transform="translate(150,60)"><g class="bang" fill="#ffd95c">
      <rect x="0" y="0" width="6" height="16"/><rect x="0" y="20" width="6" height="6"/>
    </g></g>
    <text class="capB1 mono" x="410" y="162" text-anchor="middle" font-size="13" fill="#c9c3e6">builds a rocket</text>
    <text class="capB2 mono" x="410" y="162" text-anchor="middle" font-size="13" fill="#f2a65e">...it flew. briefly.</text>
  </g>

  <!-- ============ SCENE C : contribution grid ============ -->
  <g class="sceneC">
    <text class="mono" x="316" y="66" font-size="11" fill="#5a4f8a">this year</text>
    <!-- base grid -->
    <g fill="#241a52">
      <rect x="316" y="74" width="12" height="12"/><rect x="316" y="90" width="12" height="12"/><rect x="316" y="106" width="12" height="12"/><rect x="316" y="122" width="12" height="12"/><rect x="316" y="138" width="12" height="12"/>
      <rect x="332" y="74" width="12" height="12"/><rect x="332" y="90" width="12" height="12"/><rect x="332" y="106" width="12" height="12"/><rect x="332" y="122" width="12" height="12"/><rect x="332" y="138" width="12" height="12"/>
      <rect x="348" y="74" width="12" height="12"/><rect x="348" y="90" width="12" height="12"/><rect x="348" y="106" width="12" height="12"/><rect x="348" y="122" width="12" height="12"/><rect x="348" y="138" width="12" height="12"/>
      <rect x="364" y="74" width="12" height="12"/><rect x="364" y="90" width="12" height="12"/><rect x="364" y="106" width="12" height="12"/><rect x="364" y="122" width="12" height="12"/><rect x="364" y="138" width="12" height="12"/>
      <rect x="380" y="74" width="12" height="12"/><rect x="380" y="90" width="12" height="12"/><rect x="380" y="106" width="12" height="12"/><rect x="380" y="122" width="12" height="12"/><rect x="380" y="138" width="12" height="12"/>
      <rect x="396" y="74" width="12" height="12"/><rect x="396" y="90" width="12" height="12"/><rect x="396" y="106" width="12" height="12"/><rect x="396" y="122" width="12" height="12"/><rect x="396" y="138" width="12" height="12"/>
      <rect x="412" y="74" width="12" height="12"/><rect x="412" y="90" width="12" height="12"/><rect x="412" y="106" width="12" height="12"/><rect x="412" y="122" width="12" height="12"/><rect x="412" y="138" width="12" height="12"/>
      <rect x="428" y="74" width="12" height="12"/><rect x="428" y="90" width="12" height="12"/><rect x="428" y="106" width="12" height="12"/><rect x="428" y="122" width="12" height="12"/><rect x="428" y="138" width="12" height="12"/>
      <rect x="444" y="74" width="12" height="12"/><rect x="444" y="90" width="12" height="12"/><rect x="444" y="106" width="12" height="12"/><rect x="444" y="122" width="12" height="12"/><rect x="444" y="138" width="12" height="12"/>
      <rect x="460" y="74" width="12" height="12"/><rect x="460" y="90" width="12" height="12"/><rect x="460" y="106" width="12" height="12"/><rect x="460" y="122" width="12" height="12"/><rect x="460" y="138" width="12" height="12"/>
      <rect x="476" y="74" width="12" height="12"/><rect x="476" y="90" width="12" height="12"/><rect x="476" y="106" width="12" height="12"/><rect x="476" y="122" width="12" height="12"/><rect x="476" y="138" width="12" height="12"/>
      <rect x="492" y="74" width="12" height="12"/><rect x="492" y="90" width="12" height="12"/><rect x="492" y="106" width="12" height="12"/><rect x="492" y="122" width="12" height="12"/><rect x="492" y="138" width="12" height="12"/>
    </g>
    <!-- green fill columns -->
    <g class="col" style="animation-delay:-1.32s"><g fill="#006d32"><rect x="316" y="74" width="12" height="12"/></g><g fill="#26a641"><rect x="316" y="106" width="12" height="12"/><rect x="316" y="138" width="12" height="12"/></g><g fill="#39d353"><rect x="316" y="90" width="12" height="12"/></g></g>
    <g class="col" style="animation-delay:-1.20s"><g fill="#26a641"><rect x="332" y="90" width="12" height="12"/><rect x="332" y="122" width="12" height="12"/></g><g fill="#2ea043"><rect x="332" y="106" width="12" height="12"/></g></g>
    <g class="col" style="animation-delay:-1.08s"><g fill="#39d353"><rect x="348" y="74" width="12" height="12"/><rect x="348" y="122" width="12" height="12"/></g><g fill="#006d32"><rect x="348" y="90" width="12" height="12"/></g><g fill="#2ea043"><rect x="348" y="138" width="12" height="12"/></g></g>
    <g class="col" style="animation-delay:-.96s"><g fill="#2ea043"><rect x="364" y="90" width="12" height="12"/></g><g fill="#26a641"><rect x="364" y="106" width="12" height="12"/></g></g>
    <g class="col" style="animation-delay:-.84s"><g fill="#39d353"><rect x="380" y="74" width="12" height="12"/><rect x="380" y="106" width="12" height="12"/></g><g fill="#006d32"><rect x="380" y="122" width="12" height="12"/></g><g fill="#26a641"><rect x="380" y="138" width="12" height="12"/></g></g>
    <g class="col" style="animation-delay:-.72s"><g fill="#26a641"><rect x="396" y="90" width="12" height="12"/></g><g fill="#2ea043"><rect x="396" y="122" width="12" height="12"/></g></g>
    <g class="col" style="animation-delay:-.60s"><g fill="#006d32"><rect x="412" y="74" width="12" height="12"/></g><g fill="#39d353"><rect x="412" y="90" width="12" height="12"/><rect x="412" y="106" width="12" height="12"/></g><g fill="#26a641"><rect x="412" y="138" width="12" height="12"/></g></g>
    <g class="col" style="animation-delay:-.48s"><g fill="#2ea043"><rect x="428" y="106" width="12" height="12"/></g><g fill="#26a641"><rect x="428" y="122" width="12" height="12"/></g></g>
    <g class="col" style="animation-delay:-.36s"><g fill="#39d353"><rect x="444" y="74" width="12" height="12"/></g><g fill="#26a641"><rect x="444" y="90" width="12" height="12"/></g><g fill="#006d32"><rect x="444" y="122" width="12" height="12"/></g></g>
    <g class="col" style="animation-delay:-.24s"><g fill="#26a641"><rect x="460" y="106" width="12" height="12"/><rect x="460" y="138" width="12" height="12"/></g><g fill="#2ea043"><rect x="460" y="90" width="12" height="12"/></g></g>
    <g class="col" style="animation-delay:-.12s"><g fill="#39d353"><rect x="476" y="74" width="12" height="12"/><rect x="476" y="122" width="12" height="12"/></g><g fill="#006d32"><rect x="476" y="106" width="12" height="12"/></g></g>
    <g class="col" style="animation-delay:0s"><g fill="#2ea043"><rect x="492" y="90" width="12" height="12"/></g><g fill="#26a641"><rect x="492" y="106" width="12" height="12"/><rect x="492" y="138" width="12" height="12"/></g></g>
    <!-- creature (happy) -->
    <g transform="translate(150,104) scale(1.2)"><g class="idle">
      <g class="ears"><rect x="9" y="-12" width="6" height="6" fill="#5f3fc0"/><rect x="6" y="-6" width="12" height="6" fill="#5f3fc0"/><rect x="45" y="-12" width="6" height="6" fill="#5f3fc0"/><rect x="42" y="-6" width="12" height="6" fill="#5f3fc0"/></g>
      <g fill="#8a63e8"><rect x="15" y="0" width="30" height="6"/><rect x="9" y="6" width="42" height="6"/><rect x="3" y="12" width="54" height="6"/><rect x="0" y="18" width="60" height="6"/><rect x="0" y="24" width="60" height="6"/><rect x="0" y="30" width="60" height="6"/><rect x="3" y="36" width="54" height="6"/><rect x="9" y="42" width="42" height="6"/></g>
      <rect x="9" y="6" width="12" height="6" fill="#a888f2"/>
      <rect x="12" y="48" width="12" height="6" fill="#5f3fc0"/><rect x="36" y="48" width="12" height="6" fill="#5f3fc0"/>
      <g class="eyesO" fill="#14103a"><rect x="15" y="18" width="6" height="12"/><rect x="39" y="18" width="6" height="12"/><rect x="15" y="18" width="3" height="3" fill="#c9bcff"/><rect x="39" y="18" width="3" height="3" fill="#c9bcff"/></g>
      <g class="eyesC" fill="#14103a"><rect x="15" y="24" width="6" height="3"/><rect x="39" y="24" width="6" height="3"/></g>
      <rect x="24" y="36" width="12" height="5" fill="#ffffff"/>
    </g></g>
    <text class="mono" x="410" y="162" text-anchor="middle" font-size="13" fill="#c9c3e6">ships anyway</text>
  </g>
</svg>
